<svg xmlns="http://www.w3.org/2000/svg" viewBox="0 0 1460.79 877.57"><path d="M756.11,424.4c-5,6.79-9.83,12.67-13.88,19.05-15,23.61-25.31,49.12-28.22,77-1.54,14.76-3.18,29.91,3.9,44.1a25.17,25.17,0,0,1,1.42,4.76c3.56,13.49-6.08,23.54-19.46,19.7-10.76-3.08-18.67-9.12-21.21-21.29C671,531,674.54,495.56,691.21,461.89c7.15-14.44,15.87-28.11,25-44.17-5.94,4.18-10.11,7.24-14.4,10.11A158.38,158.38,0,0,0,667,458.93,42.77,42.77,0,0,1,653,469.85c-9.09,4.44-15.15,1.48-18.78-8-3-7.92-3.08-15.83,2.61-22.57,6-7.1,12-14.29,19-20.39q50.52-44.41,116.57-58c5-1,9.49-4.42,14.09-7,13.36-7.39,26.14-16.06,40.07-22.13,21.92-9.55,44.58-17.58,68.23-21.85,10.3-1.86,18.46-7.58,26.8-12.76,30.6-19,63.5-33.26,96.65-46.88,16-6.55,32.43-11.94,48.93-17a175.86,175.86,0,0,0,37.22-16.19c12.33-7.16,25-13.78,37.51-20.58,13.13-7.14,26.06-14.7,39.51-21.19,16.72-8.07,33.9-15.19,50.85-22.79s33.71-15.86,51-22.86c30.79-12.5,61.89-24.25,92.84-36.38,3.06-1.2,6-2.78,8.93-4.27,1.19-.59,2.22-1.49,3.38-2.13,7.73-4.23,18.39-2.28,22.5,4.07,3.87,6,2.21,16.92-4.25,21.69-15.77,11.64-31.94,22.74-47.84,34.2-4.54,3.27-8.78,7-13.09,10.54-15.33,12.73-30.43,25.74-46,38.17-15.33,12.24-31,24-46.73,35.76-26.38,19.67-53.34,38.55-82.2,54.41-13.65,7.5-28.22,13.31-42.13,20.36-4,2-7.45,5.44-10.66,8.7-19.12,19.4-37.72,39.34-57.27,58.29-10.71,10.37-22.52,19.65-36.26,26.22A81.5,81.5,0,0,1,996,407.53c-13,1.14-25.77.8-39.22-3-6.21,12.81-12.14,25-18,37.21s-11.46,24.75-17.84,36.78c-4.89,9.22-14.06,12.69-24.27,10.73a48.07,48.07,0,0,1-21.51-9.8A226.44,226.44,0,0,0,829,450.55c-1.09,2.23-2.45,4.08-2.93,6.13-3.21,13.89-6.34,27.8-9.27,41.75-1,4.47.65,8.37,3.66,11.91a64.93,64.93,0,0,1,6.77,9.88c6.83,11.94,3.23,28.36-7.62,35.56-6.87,4.57-16.54,4.08-23.17-.77-8.11-5.94-11.57-14.52-13.3-23.78a119.68,119.68,0,0,1,1.23-50.48c3.5-14.45,7.64-28.74,11.85-44.39Zm164.41-26.31c-.66-.53-1.12-1.2-1.7-1.31-15.94-3.17-31.88-6.37-47.86-9.28a6.43,6.43,0,0,0-5.15,1.87c-7.5,9.14-14.72,18.5-21.77,27.47l52.41,36.47Zm54.33-23.57c2,.85,3.2,1.71,4.42,1.79,16.41,1.08,32.09-1.71,44.55-12.93,13.25-11.95,25.43-25.1,38-37.83,1.36-1.38,2-3.47,3.54-6.2-13.93,1.38-26.41,3.17-38.95,3.65-7.11.27-11.79,3.23-16.05,8.26-7.9,9.37-16.08,18.5-23.93,27.9C982.41,363.94,978.89,369.11,974.85,374.52ZM894.46,359l44.84,10,30.61-40.37c-16.54,2.4-31.24,4.47-45.92,6.74a11.4,11.4,0,0,0-5.27,2.61C911,344.53,903.32,351.29,894.46,359Zm246.67-115.13c-32.64,4-71.35,33.07-82.53,47.25,16.51-1.79,31.55-6.9,46.71-11.41a10.52,10.52,0,0,0,4-3C1119.88,265.89,1130.44,254.94,1141.13,243.89ZM784.79,397.47l28.81,8c4.2-6.67,8-12.68,11.79-18.69L824.15,385C811.22,388.11,796.44,384.34,784.79,397.47Zm221.82-108.59c-11.38,2.62-12.8,3.29-16.58,7.47C999,297,996.78,297.19,1006.61,288.88Z" transform="translate(-183.59 -84.71)"/><path d="M320.3,637.9c0,39.62.16,79.24-.14,118.85A79.9,79.9,0,0,1,317,778.32c-5.38,18.47-17.24,30.37-36.91,33.29a199.47,199.47,0,0,1-55.7.08c-15.54-2.05-26.26-10.8-33.11-24.38a68.2,68.2,0,0,1-7.65-30.7q-.15-92,0-183.93c0-14.42,8.13-20.5,22.07-16.65,4.23,1.16,7.1,3.69,7.44,8.29.22,3,.19,6,.19,9q0,91,.06,181.93a56.9,56.9,0,0,0,1.12,12.86c2.21,9.41,8.48,15.24,18.13,15.69,13.24.62,26.56.71,39.79.05,9.88-.5,16.48-7.15,18.24-16.94a79.61,79.61,0,0,0,.94-13.9c0-78.39.33-156.78-.2-235.16-.11-17.35,6-17.72,21.55-16.11,2.42.25,5.4,3.8,6.43,6.48,1.25,3.25.89,7.2.89,10.85Q320.35,578.48,320.3,637.9Z" transform="translate(-183.59 -84.71)"/><path d="M1525.91,654.31h-11.53c-3,0-6,.18-9,0-9.5-.57-12.48-3.82-12.25-13.13.2-8.56,3.34-11.77,12.41-11.8,30-.11,60-.27,89.93,0,22.2.23,39,12.79,45.07,34.09a95.91,95.91,0,0,1,3.62,25.55c.32,54.21.18,108.42.19,162.63,0,1.67,0,3.33,0,5-.52,13.34-3.89,16.5-17,16-8.62-.34-11.74-3.41-12.28-12.25-.16-2.66,0-5.33,0-8q0-80.92,0-161.87c0-2.33,0-4.66,0-7-.33-18-7.62-25.15-25.81-25.29-6.65,0-13.31.25-20-.09-17.78-.91-25.18,11.07-24.66,24.32.4,10,.08,20,.08,30q0,40.47,0,80.94c0,2.66.12,5.35-.14,8-.9,9.1-3.47,11.46-12.63,11.9-13.15.64-16.45-2.54-16.45-16,0-38.4.09-76.8,0-115.2,0-10.12,1.92-19.16,11.25-25.19Z" transform="translate(-183.59 -84.71)"/><path d="M1062.86,721c0-14-.32-28,.07-41.92.58-20.39,11.87-44.07,40-49a47.68,47.68,0,0,1,7.91-.72c14.31-.07,28.63-.17,43,0,21.53.26,38.55,12.72,44.62,33.27a82,82,0,0,1,3.4,21.58c.4,25,.27,49.95.1,74.92-.07,11.84-2.63,23.21-9.35,33.16-7,10.33-16.46,17.08-29.11,19.15-18.89,3.1-37.92,2.91-56.74.9-26.22-2.79-42.92-21.92-43.66-48.44-.39-14.3-.07-28.61-.07-42.92Zm110.26,1.2h0c0-13.65.31-27.3-.09-40.94-.41-14.47-8-22.31-22.17-22.83-12.6-.47-25.26.46-37.86,0s-21.67,11-21.64,22.58c.05,26.29-.13,52.58.17,78.87.19,16.47,8.29,24.26,24.75,24.49q16.41.24,32.82-.08c15.71-.29,23.71-8.27,24-24.13C1173.31,747.49,1173.12,734.84,1173.12,722.19Z" transform="translate(-183.59 -84.71)"/><path d="M957.56,859.07c3.86,12.57,2.06,15.37-9,15.58-4,.08-8,.17-12,0-5-.21-7.55,1.91-7.52,7q.16,29.5.34,59c0,4,2.15,6.18,6.14,6.34,3.66.15,7.34-.07,11,.21,5.08.39,8,3.15,8,7.09,0,4.11-2.84,7-7.82,7-14.66.16-29.33,0-44,.09-4.61,0-6.7-2.39-7.21-6.53-.53-4.35,1.9-6.88,7.13-7.74,10.32-1.72,10.41-1.72,10.38-12.25q0-25.5-.34-51c0-2.58-.49-5.15-.79-8.12-3.07-.48-5.65-.77-8.18-1.3-5.87-1.23-7.27-3.21-7-8.88.25-5.15,3.2-6.51,7.86-6.95,7.92-.75,7.74-1,8.17-9.18a104.25,104.25,0,0,1,1.77-16.77c1.88-8.54,8.52-13.65,16.19-18.39-11.58-1-22.12-1.52-32.55-2.85-16.82-2.14-27.86-12.27-33.93-27.47a64.86,64.86,0,0,1-4.76-22.28c-.55-27.3-.33-54.61-.17-81.92a52.41,52.41,0,0,1,12.37-34.07c9.05-10.8,21.08-16.09,35.12-16.26,16.66-.22,33.33-.13,50,0,9.41.06,11.83,2.47,12.39,11.64.84,13.67-1.88,16.86-15.36,17.13-12,.24-24,.09-35.94.16-3,0-6,.33-9,.23-10.77-.36-20.77,7.89-21,22.05-.37,27-.2,53.95.22,80.92.23,14.91,8.06,22.3,23.32,22.68,13.6.34,27.22.12,40.83.19,3,0,6.27-.53,8.87.53,2.78,1.13,6.51,3.51,7,6,1.61,7.4,3,15.3-4.11,21.64a40.34,40.34,0,0,1,2,5.4c1.81,7.93-.72,11.22-8.76,11.43-4.33.11-8.67-.09-13,.05-11.41.37-15.3,4.4-15.65,16a43.9,43.9,0,0,0,0,5c.55,6.68,1.89,8,8.53,8.3C944.15,858.89,951.05,858.94,957.56,859.07Z" transform="translate(-183.59 -84.71)"/><path d="M421.3,654.34c-6.59,0-13.2.23-19.77-.05-10.2-.44-13-3.65-12.59-13.68.35-8.36,3.06-11.2,11.77-11.23,30.32-.11,60.64-.35,91,.06,26.28.35,46.49,19.95,47.06,47.3.89,42,.32,84,.2,125.94,0,7.56-2.64,9.91-10.29,10.53a45.32,45.32,0,0,1-7,.06c-7.94-.59-10.54-3.1-10.59-11.25-.16-29-.11-57.93-.15-86.89,0-10,.12-20-.12-30a47.59,47.59,0,0,0-1.69-11.77c-2.76-9.74-8.65-14.61-18.7-15s-20-.43-29.94,0c-10.76.47-17.19,6.06-19.49,16.69A67,67,0,0,0,439.79,689c-.09,36,0,72-.05,107.95,0,14.78-5.2,19-19.79,16.23-5.51-1-8-3.66-8.54-9.41-.22-2.31-.07-4.66-.07-7,0-37.32.14-74.64-.08-112-.07-11,.7-21.29,11.07-28.32Z" transform="translate(-183.59 -84.71)"/><path d="M1349.5,649.91c1.79-.62,2.64-.64,2.93-1,12.38-17.41,30.53-21.3,50.22-21.28,10.22,0,13.07,3,13.62,13,.68,12.63-2.33,15.87-15.37,16.23-5.66.16-11.33-.1-17,.08-18.9.59-32.53,12.73-33.16,31.61-.89,27-.4,54-.49,81,0,2.33-.11,4.68.09,7,.68,8,3.17,10.59,11.24,10.89,6.66.24,13.33-.08,20,.09,11,.28,16.88,9.53,12,19.34-1.29,2.6-4.6,4.46-7.35,6-1.58.88-3.91.55-5.9.56-25.66,0-51.33.09-77,0-10,0-13.81-3.67-14-12.74-.19-8.19,3.41-12.29,11.71-13.09,2.64-.26,5.33-.05,8-.18,9.32-.46,11.46-2.66,11.83-12.21.11-2.66.05-5.33,0-8q-.24-59.45-.46-118.88a74.82,74.82,0,0,1,.22-9c.75-6.48,3.84-9.31,10.36-9.84,1.32-.1,2.66,0,4,0,11.84,0,13.74,1.88,14.16,13.91C1349.23,645.21,1349.36,647.17,1349.5,649.91Z" transform="translate(-183.59 -84.71)"/><path d="M716,708.86c0,21.66-.06,43.32,0,65,0,11.23,2.23,13.32,13.49,13.59,1.33,0,2.66,0,4,0,11.75.29,17.39,8.89,12.46,19.66-1.08,2.35-4,4.22-6.51,5.45-2,1-4.56.75-6.88.76-25.66,0-51.31.12-77,0-10.49-.06-14.5-4.79-13.51-15.07.66-6.84,3.71-10.14,10.85-10.58,7-.42,14-.09,21-.26,9.83-.24,12.66-2.92,12.68-12.48q.12-52.9,0-105.82c-.05-11.34-2.91-13.93-14.37-14.07-5.33-.06-10.67.18-16-.1-7.79-.41-11-4.16-11.2-12.27-.16-8.37,3.6-13.1,11.38-13.21,16.33-.23,32.66-.19,49,0,6.94.07,9.61,2.48,10.26,9.51.56,6,.31,12,.32,18Q716,682.87,716,708.86Z" transform="translate(-183.59 -84.71)"/><path d="M1171.62,952.33c-5.36,3.27-9.26,6.79-13.8,8.19-11.49,3.54-22.3-2-26.64-13.21a36.51,36.51,0,0,1-2.39-12.62c-.22-23.3-.11-46.6-.07-69.91a48.31,48.31,0,0,1,.7-5.14l13.21-.89c.27,4.48.66,8,.67,11.5.06,19.31-.07,38.62.12,57.93a39.29,39.29,0,0,0,2,11.63,8.81,8.81,0,0,0,9.23,6.32c4.63-.32,8.14-2.9,8.89-7.94a79.49,79.49,0,0,0,1.12-10.86c.12-15.31,0-30.62.08-45.94,0-3.22.33-6.45.54-10.16h13.38c.26,3.57.67,6.76.68,9.95.07,16.32,0,32.63,0,48.94a41.19,41.19,0,0,0,.51,7.94c.86,4.2,3.26,7.39,7.76,8.09,3.89.61,9.44-3.24,10.53-7.63a41.76,41.76,0,0,0,.82-9.89c.07-19,0-38,0-56.92,0-2.33,0-4.67.06-7,.13-4.76,2.94-6.2,7.28-6.05,4,.14,7.43.83,7.56,5.83.09,4,.09,8,.09,12,0,18,.07,35.95,0,53.93a67.7,67.7,0,0,1-1.06,12.89c-3.58,17.55-25.19,23.29-35.91,13.09A55.59,55.59,0,0,0,1171.62,952.33Z" transform="translate(-183.59 -84.71)"/><path d="M1312.24,950.37c-8.84,9.82-19.1,13.37-31.06,11.29-13.34-2.32-20.42-9.67-22.5-22.94a59.21,59.21,0,0,1-.65-8.92c-.07-13.3-.22-26.61.07-39.9.11-4.91.5-10.11,2.22-14.63,6.72-17.62,31.25-23,46.82-10.51,1.75,1.41,3.32,3,5.16,4.74,2.15-9.8,4.2-11.6,11.13-10.71,3.54.46,5.37,2.27,5.75,5.7a27.08,27.08,0,0,1,.13,3c0,28.26.09,56.52,0,84.78,0,8.13-3.87,10.74-11.46,8.89C1312.28,959.8,1314.11,954.84,1312.24,950.37ZM1274,909.9h0c0,7.3,0,14.59,0,21.89,0,5.47,2.45,9.68,7.34,12.08,14.84,7.27,33.09-1.54,32-18.14-.63-9.91,0-19.9-.12-29.85-.12-15.87-9.16-23.61-25-21.52-10,1.32-14,5.54-14.27,15.63C1273.87,896.62,1274,903.26,1274,909.9Z" transform="translate(-183.59 -84.71)"/><path d="M1508.69,909.74c0-7.32-.21-14.66,0-22,.64-18.16,10.63-28.29,28.66-29a157.41,157.41,0,0,1,20.95.37c10.51,1,17.71,6.75,21.41,16.82,3.54,9.68,3.7,19.55,1.87,29.51-1.61,8.8-5.68,12.68-14.85,13.15-10.3.53-20.63.24-31,.34-10,.1-10.79.73-11.15,8.43-.54,11.37,3,17.37,11.24,17.78,8.64.42,17.31.11,26,.12,3,0,6-.18,9,.09,5.61.51,7.21,2.59,7.08,8.63-.12,5.36-1.51,7.1-7.21,7.19-12.31.18-24.66.46-37-.16-13.83-.69-23.57-10.76-24.73-25.39-.67-8.6-.12-17.29-.12-26Zm37-6.07V904h7c13.14-.06,15.75-3.07,13.89-16.11a26.22,26.22,0,0,0-1-3.83c-2-6.65-4.37-8.82-11.17-9.23a168.31,168.31,0,0,0-17-.08c-7.55.31-11.65,4.1-12.48,11.53-.41,3.62-.11,7.31-.16,11,0,4.06,2,6.27,6,6.39C1535.66,903.78,1540.65,903.67,1545.64,903.67Z" transform="translate(-183.59 -84.71)"/><path d="M762.68,910c0-7.65-.2-15.31,0-22.95.55-17.17,11.14-27.8,28.32-28.34,7.64-.24,15.31-.18,22.94.24,13.5.76,22.36,8.36,25.09,21.44a75.45,75.45,0,0,1,1.52,13.82c.22,11,.32,22,0,32.94a63.67,63.67,0,0,1-2.43,15.65c-3.29,11.23-11.65,17.79-23.38,18.37a266,266,0,0,1-26.94,0c-14.07-.74-24-11.2-24.93-26.23-.51-8.29-.09-16.63-.09-25Zm16-.58c0,7.32-.19,14.64.05,21.95.33,10.05,4.12,13.72,14,13.91,5.32.11,10.64.07,16,0,11.31-.13,15.47-4,15.9-15.51.35-9.3.09-18.63.09-27.94,0-4.32.25-8.67-.11-13-.84-10-4.58-13.66-14.4-14.12-5.64-.27-11.31-.28-17,0-10.48.45-14.31,4.4-14.51,14.75C778.56,896.14,778.66,902.8,778.67,909.45Z" transform="translate(-183.59 -84.71)"/><path d="M693.34,889.74c-.56-2.35-1-5-1.81-7.46-3.13-9.22-16-12.42-23.07-5.81-4.62,4.3-5.32,11.85-.6,16,3.91,3.47,8.84,5.8,13.36,8.56,6.52,4,13.69,7.15,19.49,12,17,14.09,12.49,38.54-8.12,46.51-14.79,5.72-30.11,2.41-40.24-8.63a27.1,27.1,0,0,1-7.24-18.11c-.17-6.18,1.6-8.31,6.93-8.72,5.56-.43,7.55,1.16,8.63,6.93,2.36,12.52,13.45,18.88,25.21,14.44,10.19-3.85,12.26-12.79,4.4-20.13a45.87,45.87,0,0,0-9.1-6c-5.82-3.22-11.89-6-17.67-9.3-12.39-7.06-18-17.33-15.8-28.47,2.56-13,11.27-21.66,25-23.74,11.1-1.69,21.42.5,28.94,9.61a26.51,26.51,0,0,1,5.23,10.57C709.62,889.89,706.13,892.9,693.34,889.74Z" transform="translate(-183.59 -84.71)"/><path d="M1036.67,825.33c3.37-.79,5.87-1.79,8.4-1.88,5.13-.18,7.22,1.75,7.49,7.1.3,6,0,12,.17,18,.08,2.55.77,5.09,1.37,8.81,5.72,0,11-.16,16.19,0,6.83.27,8.75,2.17,8.76,8.07,0,5.75-1.86,7.44-9,7.83-3,.17-6,0-9,.07-7.73.26-8.38.8-8.6,8.79-.2,7.33-.06,14.66-.06,22,0,9-.15,18,0,27,.23,10.33,3.67,13.75,13.77,14.21,2,.09,4-.11,6,.08,5.22.51,7,2.49,7.06,7.65s-1.67,7.87-6.51,8.13a68.31,68.31,0,0,1-14.93-.43c-12.47-2.08-20.88-12.18-21.1-25.28-.24-15-.06-30-.06-45,0-2.34.07-4.67,0-7-.3-8.39-1.3-9.39-9.87-10.18-3.24-.29-6.72.21-8.37-3.85-2.53-6.25.29-11.3,7-12.11,10.91-1.31,11.13-1.52,11.26-12.74C1036.73,838.34,1036.67,832.06,1036.67,825.33Z" transform="translate(-183.59 -84.71)"/><path d="M1416.33,870.51c7.75-9.33,16.87-12.49,27.27-12.49,7.48,0,9.38,1.37,9.65,7,.32,6.54-1.64,8.55-8.86,9-4,.24-8,.13-12,.68-10,1.42-15.55,7.46-15.7,17.42-.23,15.33-.15,30.67,0,46,.06,7.93.83,8.58,8.47,8.91,3.33.14,6.68,0,10,.31,4.47.46,6.27,3.37,6,7.65-.25,3.87-2.26,6.27-6.29,6.29q-23,.1-46,0c-4,0-6-2.23-6.13-6.28s.65-7.4,5.6-7.77c3-.23,5.93-.43,8.94-.65,3.54-4.91,2.66-10.32,2.62-15.55-.15-21-.48-42-.46-63,0-8,4.44-11,11.54-9.07C1416.39,860.5,1414.77,865.27,1416.33,870.51Z" transform="translate(-183.59 -84.71)"/></svg>